M48
; DRILL file {KiCad 9.0.5} date 2025-10-20T23:25:08+0200
; FORMAT={-:-/ absolute / metric / decimal}
; #@! TF.CreationDate,2025-10-20T23:25:08+02:00
; #@! TF.GenerationSoftware,Kicad,Pcbnew,9.0.5
; #@! TF.FileFunction,Plated,1,2,PTH
FMAT,2
METRIC
; #@! TA.AperFunction,Plated,PTH,ViaDrill
T1C0.300
; #@! TA.AperFunction,Plated,PTH,ComponentDrill
T2C0.700
; #@! TA.AperFunction,Plated,PTH,ComponentDrill
T3C1.000
; #@! TA.AperFunction,Plated,PTH,ComponentDrill
T4C1.100
; #@! TA.AperFunction,Plated,PTH,ComponentDrill
T5C1.300
; #@! TA.AperFunction,Plated,PTH,ComponentDrill
T6C1.780
%
G90
G05
T1
X15.5Y-140.5
X16.0Y-66.5
X16.0Y-118.0
X16.0Y-132.0
X17.0Y-111.5
X17.5Y-106.0
X18.5Y-69.5
X18.5Y-122.5
X19.0Y-133.0
X20.0Y-116.0
X20.5Y-49.5
X20.5Y-112.5
X20.5Y-127.5
X21.0Y-104.0
X21.5Y-51.5
X22.0Y-44.0
X23.0Y-120.5
X25.0Y-62.5
X25.5Y-116.0
X26.0Y-106.5
X27.0Y-67.5
X27.5Y-103.0
X28.0Y-133.5
X28.0Y-137.5
X28.5Y-49.5
X28.5Y-58.0
X28.5Y-112.0
X29.0Y-93.0
X30.5Y-62.0
X31.0Y-76.0
X31.5Y-52.0
X32.0Y-78.0
X32.0Y-134.5
X32.5Y-118.0
X32.97Y-64.47
X33.5Y-88.5
X33.5Y-132.0
X34.0Y-62.5
X34.0Y-64.5
X34.5Y-61.5
X34.5Y-69.0
X34.7Y-65.5
X34.7Y-66.5
X35.5Y-130.0
X36.0Y-125.0
X36.5Y-112.0
X37.0Y-72.0
X37.0Y-74.5
X37.0Y-92.0
X37.5Y-48.0
X37.5Y-68.0
X38.0Y-59.5
X38.0Y-70.0
X38.0Y-74.5
X38.5Y-107.0
X38.5Y-136.0
X39.0Y-60.5
X39.0Y-64.5
X39.0Y-65.5
X39.0Y-66.5
X39.0Y-69.0
X39.0Y-74.5
X39.03Y-63.47
X39.25Y-62.25
X39.5Y-101.5
X40.0Y-74.5
X40.5Y-115.5
X41.0Y-74.5
X41.0Y-125.0
X41.5Y-51.0
X42.0Y-49.0
X42.0Y-74.5
X42.0Y-99.0
X42.0Y-133.5
X42.5Y-39.5
X42.5Y-46.0
X42.5Y-64.5
X43.0Y-56.0
X43.0Y-74.5
X43.0Y-83.439
X43.0Y-99.0
X43.0Y-130.0
X43.5Y-85.0
X44.0Y-87.5
X44.0Y-99.5
X45.0Y-94.0
X45.0Y-99.5
X45.5Y-64.0
X46.0Y-57.0
X46.0Y-88.0
X46.0Y-93.0
X46.0Y-101.0
X46.5Y-48.5
X46.5Y-80.5
X46.5Y-92.0
X46.75Y-119.25
X47.0Y-40.5
X47.0Y-72.0
X47.0Y-121.0
X47.5Y-102.5
X47.5Y-123.0
X48.0Y-79.5
X48.0Y-91.0
X48.5Y-90.0
X49.0Y-89.0
X49.0Y-134.5
X49.5Y-88.0
X50.0Y-71.0
X50.0Y-84.0
X50.5Y-42.5
X51.5Y-139.5
X52.0Y-108.0
X53.5Y-40.5
X55.0Y-113.5
X55.5Y-97.0
X55.5Y-125.0
X56.0Y-52.7
X56.0Y-66.5
X56.5Y-80.0
X56.5Y-108.5
X57.0Y-73.0
X57.0Y-85.0
X58.0Y-106.0
X58.5Y-52.5
X58.5Y-87.5
X59.0Y-62.5
X59.0Y-78.0
X59.0Y-113.5
X60.0Y-47.5
X60.5Y-66.5
X60.5Y-71.5
X60.5Y-81.5
X61.0Y-130.5
X61.5Y-113.5
X62.0Y-67.5
X62.0Y-73.0
X62.0Y-101.0
X62.0Y-102.5
X63.0Y-84.5
X63.5Y-98.5
X63.5Y-112.0
X64.0Y-40.0
X64.0Y-66.0
X64.0Y-72.0
X64.5Y-93.0
X64.5Y-126.5
X65.0Y-69.0
X65.0Y-97.75
X65.0Y-121.0
X65.5Y-94.0
X66.0Y-95.5
X66.5Y-66.5
X68.0Y-67.0
X68.0Y-82.0
X68.0Y-113.5
X68.5Y-74.5
X68.5Y-136.5
X69.0Y-45.5
X69.0Y-91.0
X69.0Y-92.5
X69.0Y-120.5
X69.5Y-67.0
X70.0Y-65.0
X70.5Y-133.0
X70.5Y-140.0
X71.0Y-59.75
X71.0Y-66.0
X71.5Y-127.0
X72.0Y-59.5
X72.5Y-65.0
X72.5Y-74.5
X73.0Y-40.0
X73.5Y-50.0
X73.5Y-125.0
X74.0Y-67.0
X75.0Y-76.0
X75.0Y-124.0
X75.0Y-125.5
X75.5Y-85.0
X75.5Y-120.5
X76.0Y-52.5
X76.0Y-89.5
X76.0Y-124.5
X76.5Y-72.0
X77.0Y-65.0
X77.5Y-59.5
X78.0Y-80.5
X78.0Y-86.0
X78.0Y-120.5
X78.0Y-127.5
X78.5Y-123.75
X78.5Y-125.0
X79.5Y-92.5
X80.5Y-67.0
X80.5Y-120.5
X80.64Y-124.14
X81.0Y-98.5
X81.0Y-129.0
X81.5Y-73.0
X82.0Y-60.25
X82.0Y-65.5
X82.0Y-131.0
X82.5Y-90.5
X83.0Y-120.5
X83.5Y-39.5
X83.75Y-70.0
X84.0Y-66.5
X84.0Y-75.0
X84.0Y-91.5
X84.0Y-124.5
X84.0Y-128.5
X85.0Y-79.5
X85.0Y-131.0
X85.5Y-53.0
X85.5Y-60.0
X85.5Y-69.0
X85.5Y-120.5
X85.5Y-133.5
X86.5Y-71.5
X86.811Y-64.5
X87.0Y-77.5
X87.5Y-99.0
X87.5Y-136.5
X88.0Y-60.0
X88.0Y-62.0
X88.0Y-65.5
X88.0Y-68.5
X88.5Y-64.5
X88.5Y-98.0
X89.0Y-100.5
X89.0Y-125.0
X89.434Y-64.934
X89.5Y-60.0
X89.5Y-113.0
X90.0Y-48.0
X90.0Y-92.5
X90.5Y-39.5
X90.97Y-64.47
X91.0Y-121.0
X91.5Y-52.5
X91.5Y-62.0
X91.875Y-104.875
X93.0Y-47.5
X93.0Y-66.5
X93.5Y-69.0
X93.5Y-86.0
X93.5Y-130.0
X94.0Y-44.0
X94.0Y-59.5
X94.0Y-78.5
X94.0Y-83.0
X94.5Y-67.5
X94.5Y-124.5
X95.0Y-70.0
X95.0Y-71.0
X95.0Y-107.0
X95.0Y-133.0
X95.5Y-62.0
X95.5Y-83.5
X96.5Y-53.0
X96.5Y-65.5
X96.5Y-67.5
X96.5Y-88.5
X96.5Y-93.0
X96.5Y-100.5
X97.0Y-59.5
X97.0Y-62.5
X97.5Y-65.5
X97.5Y-67.5
X98.0Y-48.0
X98.0Y-94.5
X98.0Y-111.5
X98.5Y-39.5
X99.5Y-121.0
X100.5Y-79.5
X100.5Y-109.0
X101.0Y-75.5
X101.0Y-100.5
X101.5Y-63.0
X102.5Y-52.5
X102.5Y-92.5
X102.5Y-136.0
X103.0Y-59.5
X103.0Y-68.0
X103.0Y-88.0
X103.5Y-48.5
X103.5Y-101.0
X103.5Y-107.0
X103.5Y-124.0
X104.0Y-93.5
X104.5Y-62.0
X105.0Y-101.0
X105.0Y-103.5
X105.166Y-95.666
X105.5Y-65.0
X106.0Y-38.0
X106.0Y-84.0
X106.0Y-136.5
X106.5Y-48.0
X108.0Y-80.0
X108.5Y-77.5
X109.0Y-44.5
X109.0Y-68.5
X110.5Y-107.5
X111.0Y-64.5
X112.5Y-88.5
X112.5Y-114.0
X112.5Y-121.0
X113.0Y-86.0
X114.0Y-76.5
X114.5Y-50.5
X114.5Y-64.0
X114.5Y-128.5
X115.5Y-62.0
X115.5Y-79.5
X116.0Y-111.0
X117.5Y-64.5
X117.5Y-108.5
X118.0Y-51.0
X118.0Y-52.5
X118.5Y-43.0
X119.0Y-81.5
X119.5Y-107.5
X120.5Y-108.0
X121.0Y-92.5
X121.5Y-91.5
X122.0Y-38.0
X122.0Y-102.0
X122.0Y-131.0
X122.5Y-103.5
X122.5Y-111.5
X124.0Y-110.0
X125.0Y-83.0
X125.0Y-134.0
X125.5Y-107.0
X126.5Y-74.0
X127.5Y-53.0
X127.5Y-90.0
X128.5Y-120.5
X129.0Y-62.0
X129.0Y-103.5
X129.5Y-42.0
X129.5Y-112.0
X130.0Y-88.0
X131.0Y-77.0
X132.5Y-103.5
X132.5Y-136.0
X135.5Y-52.5
X135.5Y-134.5
X136.0Y-81.0
X136.0Y-109.5
X136.0Y-110.5
X136.0Y-125.5
X137.0Y-89.5
X137.5Y-85.0
X137.5Y-87.0
X137.5Y-88.0
X137.5Y-125.5
X138.5Y-95.5
X138.5Y-109.5
X138.5Y-110.5
X138.5Y-111.5
X138.5Y-112.5
X138.5Y-126.0
X139.0Y-42.5
X139.0Y-94.5
X139.5Y-92.5
X140.0Y-63.0
X140.0Y-74.5
X140.0Y-126.0
X140.046Y-82.5
X140.5Y-91.5
X141.0Y-38.0
X141.5Y-103.5
X141.5Y-113.5
X142.0Y-86.5
X142.5Y-108.5
X142.5Y-112.5
X143.0Y-54.5
X143.0Y-85.5
X143.5Y-111.5
X143.5Y-129.0
X144.0Y-57.5
X144.0Y-84.0
X144.5Y-110.5
X145.0Y-103.5
X145.5Y-109.5
X146.53Y-108.97
X147.0Y-86.5
X147.0Y-90.0
X147.5Y-62.5
X147.5Y-85.5
X147.5Y-96.5
X148.0Y-55.0
X148.0Y-79.5
X148.0Y-84.0
X148.0Y-121.0
X148.5Y-42.5
X150.0Y-91.5
X151.0Y-81.5
X151.0Y-113.0
X151.5Y-75.5
X152.0Y-38.0
X153.0Y-127.5
X153.5Y-90.5
X154.25Y-62.25
X154.5Y-54.0
X154.5Y-69.0
X155.0Y-119.5
X155.0Y-132.5
X156.0Y-57.5
X156.0Y-138.0
X156.5Y-73.5
X157.0Y-80.0
X157.5Y-115.0
X158.0Y-109.5
X158.5Y-42.5
X158.5Y-103.5
X159.0Y-56.5
X159.0Y-63.5
X159.5Y-48.0
X159.5Y-53.0
X160.0Y-61.0
X161.0Y-64.0
X161.5Y-73.5
X161.5Y-80.0
X162.0Y-119.5
X162.5Y-54.0
X164.0Y-89.5
X164.5Y-38.0
X164.5Y-59.0
X165.0Y-42.5
X165.0Y-57.0
X165.0Y-115.0
X165.5Y-58.5
X166.0Y-56.0
X167.5Y-53.0
X167.934Y-54.934
X168.0Y-73.0
X168.5Y-47.5
X169.5Y-82.5
X169.5Y-84.0
X169.5Y-85.5
X169.5Y-86.5
X169.5Y-91.5
X169.5Y-93.0
X170.0Y-48.5
X170.0Y-57.0
X170.05Y-90.5
X170.251Y-89.249
X170.5Y-79.0
X170.5Y-94.0
X171.0Y-59.0
X172.0Y-42.0
X172.0Y-52.0
X172.5Y-125.0
X173.0Y-103.5
X174.0Y-56.0
X174.0Y-82.5
X174.0Y-84.0
X174.0Y-85.5
X174.0Y-86.5
X174.5Y-44.5
X174.5Y-102.5
X174.934Y-93.066
X175.0Y-95.0
X175.3Y-90.5
X175.5Y-123.0
X176.0Y-56.0
X176.0Y-92.0
X176.5Y-57.0
X177.5Y-80.0
X178.0Y-109.5
X178.5Y-48.5
X179.0Y-44.5
X179.5Y-50.0
X179.5Y-54.0
X181.5Y-98.5
X183.0Y-90.0
X183.5Y-64.0
X184.0Y-109.0
X187.0Y-97.0
X190.0Y-56.0
X190.0Y-79.5
X191.0Y-99.5
X191.5Y-60.0
X192.5Y-68.0
X193.5Y-131.0
X195.0Y-109.5
X195.5Y-128.5
X196.0Y-96.5
X196.0Y-99.5
X197.0Y-53.5
X198.0Y-63.5
X198.0Y-87.0
X198.0Y-90.5
X198.5Y-74.5
X199.184Y-56.684
X199.5Y-96.5
X201.0Y-44.5
X201.5Y-61.5
X202.0Y-96.5
X202.0Y-109.0
X203.0Y-55.18
X203.5Y-35.0
X205.5Y-46.0
X205.5Y-137.5
X206.0Y-58.0
X206.0Y-96.5
X206.0Y-109.0
X207.0Y-112.5
X208.0Y-38.5
X209.5Y-61.5
X209.5Y-89.5
X209.5Y-128.0
X210.0Y-35.0
X210.0Y-53.5
X210.0Y-65.0
X210.0Y-100.5
X211.0Y-57.0
X211.0Y-74.0
X211.5Y-87.0
X211.5Y-110.5
X212.5Y-38.5
X212.5Y-100.5
X212.5Y-112.0
X213.0Y-58.5
X213.0Y-61.5
X213.5Y-129.0
X213.5Y-140.0
X215.5Y-57.0
X215.5Y-136.5
X216.0Y-79.5
X216.0Y-90.0
X216.5Y-101.5
X217.5Y-38.5
X217.5Y-87.0
X218.5Y-35.5
X219.0Y-97.5
X219.0Y-102.5
X219.5Y-64.5
X220.0Y-46.5
X220.0Y-69.0
X222.0Y-46.0
X222.0Y-74.5
X222.0Y-98.0
X222.5Y-43.0
X222.5Y-61.5
X223.0Y-47.5
X223.0Y-70.5
X223.5Y-102.0
X224.0Y-122.0
X224.75Y-49.75
X225.0Y-59.0
X225.5Y-41.0
X225.5Y-50.5
X225.5Y-113.0
X226.0Y-74.5
X226.0Y-79.5
X226.0Y-87.5
X226.5Y-49.0
X226.621Y-51.5
X227.0Y-64.5
X227.5Y-33.5
X227.5Y-61.5
X228.5Y-46.5
X228.5Y-110.0
X229.0Y-69.5
X231.5Y-67.0
X232.0Y-111.5
X232.5Y-117.5
X233.0Y-128.5
X234.5Y-75.0
X235.5Y-72.0
X237.0Y-35.0
X237.0Y-112.5
X238.0Y-72.0
X238.0Y-123.0
X238.0Y-126.0
X239.0Y-119.0
X241.0Y-127.0
X241.5Y-79.5
X242.0Y-75.5
T2
X99.5Y-134.0
X99.5Y-139.0
X110.5Y-134.0
X110.5Y-139.0
X142.0Y-135.5
X161.5Y-133.0
X161.5Y-138.0
X174.0Y-133.0
X174.0Y-138.0
T3
X23.0Y-75.298
X23.0Y-77.838
X23.0Y-80.378
X23.0Y-82.918
X23.0Y-85.458
X23.0Y-87.998
X23.0Y-90.538
X23.0Y-93.078
X23.0Y-95.618
X23.0Y-98.158
X23.385Y-34.96
X23.385Y-37.5
X23.385Y-40.04
X25.54Y-75.298
X25.54Y-77.838
X25.54Y-80.378
X25.54Y-82.918
X25.54Y-85.458
X25.54Y-87.998
X25.54Y-90.538
X25.54Y-93.078
X25.54Y-95.618
X25.54Y-98.158
X37.0Y-35.0
X37.0Y-37.54
X37.0Y-40.08
X57.5Y-42.42
X57.5Y-44.96
X57.5Y-47.5
X63.42Y-48.0
X65.96Y-48.0
X68.0Y-125.38
X68.0Y-127.92
X68.0Y-130.46
X68.0Y-133.0
X68.5Y-48.0
X71.04Y-48.0
X73.58Y-48.0
X76.12Y-48.0
X78.66Y-48.0
X81.2Y-48.0
X83.74Y-48.0
X86.28Y-48.0
X97.42Y-44.5
X99.96Y-44.5
X102.5Y-44.5
X186.5Y-58.92
X186.5Y-61.46
X186.5Y-64.0
X202.0Y-86.0
X202.0Y-88.54
X202.0Y-91.08
X210.5Y-133.185
X210.5Y-135.725
X210.5Y-138.265
X219.5Y-133.185
X219.5Y-135.725
X219.5Y-138.265
X232.46Y-45.02
X232.46Y-47.56
X232.46Y-50.1
X232.46Y-52.64
X232.46Y-55.18
X232.46Y-57.72
X232.46Y-60.26
X232.46Y-62.8
X232.46Y-65.34
X232.46Y-78.56
X232.46Y-81.1
X232.46Y-83.64
X232.46Y-86.18
X232.46Y-88.72
X232.46Y-91.26
X232.46Y-93.8
X232.46Y-96.34
X232.46Y-98.88
X232.46Y-101.42
X235.0Y-45.02
X235.0Y-47.56
X235.0Y-50.1
X235.0Y-52.64
X235.0Y-55.18
X235.0Y-57.72
X235.0Y-60.26
X235.0Y-62.8
X235.0Y-65.34
X235.0Y-78.56
X235.0Y-81.1
X235.0Y-83.64
X235.0Y-86.18
X235.0Y-88.72
X235.0Y-91.26
X235.0Y-93.8
X235.0Y-96.34
X235.0Y-98.88
X235.0Y-101.42
X235.0Y-131.72
X235.0Y-134.26
X235.0Y-136.8
T4
X50.68Y-55.04
X50.68Y-57.58
X50.68Y-116.0
X50.68Y-118.54
X53.22Y-55.04
X53.22Y-57.58
X53.22Y-116.0
X53.22Y-118.54
X55.76Y-55.04
X55.76Y-57.58
X55.76Y-116.0
X55.76Y-118.54
X58.3Y-55.04
X58.3Y-57.58
X58.3Y-116.0
X58.3Y-118.54
X60.84Y-55.04
X60.84Y-57.58
X60.84Y-116.0
X60.84Y-118.54
X63.38Y-55.04
X63.38Y-57.58
X63.38Y-116.0
X63.38Y-118.54
X65.92Y-55.04
X65.92Y-57.58
X65.92Y-116.0
X65.92Y-118.54
X68.46Y-55.04
X68.46Y-57.58
X68.46Y-116.0
X68.46Y-118.54
X71.0Y-55.04
X71.0Y-57.58
X71.0Y-116.0
X71.0Y-118.54
X73.54Y-55.04
X73.54Y-57.58
X73.54Y-116.0
X73.54Y-118.54
X76.08Y-55.04
X76.08Y-57.58
X76.08Y-116.0
X76.08Y-118.54
X78.62Y-55.04
X78.62Y-57.58
X78.62Y-116.0
X78.62Y-118.54
X81.16Y-55.04
X81.16Y-57.58
X81.16Y-116.0
X81.16Y-118.54
X83.7Y-55.04
X83.7Y-57.58
X83.7Y-116.0
X83.7Y-118.54
X86.24Y-55.04
X86.24Y-57.58
X86.24Y-116.0
X86.24Y-118.54
X88.78Y-55.04
X88.78Y-57.58
X88.78Y-116.0
X88.78Y-118.54
X91.32Y-55.04
X91.32Y-57.58
X91.32Y-115.986
X91.32Y-118.526
X93.86Y-55.04
X93.86Y-57.58
X93.86Y-115.986
X93.86Y-118.526
X96.4Y-55.04
X96.4Y-57.58
X96.4Y-115.986
X96.4Y-118.526
X98.94Y-55.04
X98.94Y-57.58
X98.94Y-115.986
X98.94Y-118.526
X101.48Y-55.04
X101.48Y-57.58
X101.48Y-115.986
X101.48Y-118.526
X104.02Y-55.04
X104.02Y-57.58
X104.02Y-115.986
X104.02Y-118.526
X106.56Y-55.04
X106.56Y-57.58
X106.56Y-115.986
X106.56Y-118.526
X109.1Y-55.04
X109.1Y-57.58
X109.1Y-115.986
X109.1Y-118.526
X111.64Y-55.04
X111.64Y-57.58
X111.64Y-115.986
X111.64Y-118.526
X114.18Y-55.04
X114.18Y-57.58
X114.18Y-115.986
X114.18Y-118.526
X116.72Y-55.04
X116.72Y-57.58
X116.72Y-115.986
X116.72Y-118.526
X119.26Y-55.04
X119.26Y-57.58
X119.26Y-115.986
X119.26Y-118.526
X121.8Y-55.04
X121.8Y-57.58
X121.8Y-115.986
X121.8Y-118.526
X124.34Y-55.04
X124.34Y-57.58
X124.34Y-115.986
X124.34Y-118.526
X126.88Y-55.04
X126.88Y-57.58
X126.88Y-115.986
X126.88Y-118.526
X129.42Y-55.04
X129.42Y-57.58
X129.42Y-115.986
X129.42Y-118.526
X131.96Y-55.04
X131.96Y-57.58
X131.96Y-115.986
X131.96Y-118.526
X134.5Y-55.04
X134.5Y-57.58
X134.5Y-115.986
X134.5Y-118.526
X137.04Y-55.04
X137.04Y-57.58
X137.04Y-115.986
X137.04Y-118.526
T5
X198.0Y-36.5
X198.0Y-41.5
T6
X177.0Y-38.0
X177.0Y-41.4
X186.92Y-38.0
X186.92Y-41.4
M30
